# xmcd
#
# Track frame offsets:
#	150
#	11098
#	22609
#	34575
#	52690
#	63274
#	73861
#	82686
#	92210
#	113509
#	122645
#	137361
#
# Disc length: 1948 seconds
#
# Revision: 0
# Processed by: cddbd v1.5.2PL0 Copyright (c) Steve Scherf et al.
# Submitted via: EasyCDDAExtractor 10.2.0.1
#
DISCID=82079a0c
DTITLE=The Smoky Mountain Boys - The Dawning Is Nigh
DYEAR=1900
DGENRE=Gospel
TTITLE0=Into The Fire
TTITLE1=I Saw The Father In My Daddy
TTITLE2=Gospel Plow
TTITLE3=He Had The World On His Shoulders
TTITLE4=Dying To Live Again
TTITLE5=Bound For The Kingdom
TTITLE6=The End
TTITLE7=He Can't See My Sins
TTITLE8=Just In An Instant
TTITLE9=This Friend Of Mine
TTITLE10=Let's Go Back
TTITLE11=Writing On The Wall
EXTD=
EXTT0=
EXTT1=
EXTT2=
EXTT3=
EXTT4=
EXTT5=
EXTT6=
EXTT7=
EXTT8=
EXTT9=
EXTT10=
EXTT11=
PLAYORDER=
